<svg width="56" height="40" viewBox="0 0 56 40" fill="none" xmlns="http://www.w3.org/2000/svg">
<path d="M40.375 20C44.17 20 47.2225 16.92 47.2225 13.125C47.2225 9.33 44.17 6.25 40.375 6.25C36.58 6.25 33.5 9.33 33.5 13.125C33.5 16.92 36.58 20 40.375 20ZM19.75 17.25C24.315 17.25 27.9725 13.565 27.9725 9C27.9725 4.435 24.315 0.75 19.75 0.75C15.185 0.75 11.5 4.435 11.5 9C11.5 13.565 15.185 17.25 19.75 17.25ZM40.375 25.5C35.3425 25.5 25.25 28.03 25.25 33.0625V39.25H55.5V33.0625C55.5 28.03 45.4075 25.5 40.375 25.5ZM19.75 22.75C13.3425 22.75 0.5 25.9675 0.5 32.375V39.25H19.75V33.0625C19.75 30.725 20.6575 26.6275 26.2675 23.52C23.875 23.025 21.565 22.75 19.75 22.75Z" fill="white" fill-opacity="0.75"/>
</svg>
